# xmcd
#
# Track frame offsets:
#	150
#	11420
#	24457
#	34208
#	47572
#	60437
#	71634
#	91187
#	108362
#	116971
#
# Disc length: 1706 seconds
#
# Revision: 0
# Processed by: cddbd v1.5.2PL0 Copyright (c) Steve Scherf et al.
# Submitted via: audiograbber 1.83.01
#
DISCID=7b06a80a
DTITLE=Dolly Parton - All I Can Do
DYEAR=1976
DGENRE=Country
TTITLE0=All I Can Do
TTITLE1=The Fire That Keeps You Warm
TTITLE2=When The Sun Goes Down Tomorrow
TTITLE3=I'm A Drifter
TTITLE4=Falling Out Of Love With Me
TTITLE5=Shattered Image
TTITLE6=Boulder To Birmingham
TTITLE7=Preacher Tom
TTITLE8=Life's Like Poetry
TTITLE9=Hey, Lucky Lady
EXTD=
EXTT0=
EXTT1=
EXTT2=
EXTT3=
EXTT4=
EXTT5=
EXTT6=
EXTT7=
EXTT8=
EXTT9=
PLAYORDER=
